<?xml version="1.0" standalone="no"?><?xml-stylesheet type="text/css" href="https://wps.processon.com/themes/default/wps/mind/icons/icons.css" ?><!DOCTYPE svg PUBLIC "-//W3C//DTD SVG 1.1//EN" "http://www.w3.org/Graphics/SVG/1.1/DTD/svg11.dtd"><svg id="SvgjsSvg1006" width="825" height="644" xmlns="http://www.w3.org/2000/svg" version="1.1" xmlns:xlink="http://www.w3.org/1999/xlink" xmlns:svgjs="http://svgjs.com/svgjs"><defs id="SvgjsDefs1007"><pattern patternUnits="userSpaceOnUse" id="pattern_mark_0" width="300" height="300"><text x="150" y="100" fill="rgba(229,229,229,0.8)" font-size="18" transform="rotate(-45, 150, 150)" style="dominant-baseline: middle; text-anchor: middle;"></text></pattern><pattern patternUnits="userSpaceOnUse" id="pattern_mark_1" width="300" height="300"><text x="150" y="200" fill="rgba(229,229,229,0.8)" font-size="18" transform="rotate(-45, 150, 150)" style="dominant-baseline: middle; text-anchor: middle;"></text></pattern></defs><rect id="svgbackgroundid" width="825" height="644" fill="transparent"></rect><rect id="SvgjsRect1009" width="825" height="644" fill="url(#pattern_mark_0)"></rect><rect id="SvgjsRect1010" width="825" height="644" fill="url(#pattern_mark_1)"></rect><g id="SvgjsG1011" transform="translate(87,359)"><path id="SvgjsPath1012" d="M 0 4Q 0 0 4 0L 709 0Q 713 0 713 4L 713 68Q 713 72 709 72L 4 72Q 0 72 0 68Z" stroke="rgba(33,41,48,1)" stroke-width="1.5" fill-opacity="1" fill="#b0e38f"></path><g id="SvgjsG1013"><text id="SvgjsText1014" font-family="微软雅黑" text-anchor="start" font-size="13px" width="693px" fill="#323232" font-weight="400" align="middle" lineHeight="125%" anchor="start" family="微软雅黑" size="13px" weight="400" font-style="" opacity="1" y="25.375" transform="rotate(0)"></text></g></g><g id="SvgjsG1015" transform="translate(87,105)"><path id="SvgjsPath1016" d="M 0 4Q 0 0 4 0L 709 0Q 713 0 713 4L 713 68Q 713 72 709 72L 4 72Q 0 72 0 68Z" stroke="rgba(33,41,48,1)" stroke-width="1.5" fill-opacity="1" fill="#f1e4a2"></path><g id="SvgjsG1017"><text id="SvgjsText1018" font-family="微软雅黑" text-anchor="start" font-size="13px" width="693px" fill="#323232" font-weight="400" align="middle" lineHeight="125%" anchor="start" family="微软雅黑" size="13px" weight="400" font-style="" opacity="1" y="25.375" transform="rotate(0)"><tspan id="SvgjsTspan1019" dy="16" x="10"><tspan id="SvgjsTspan1020" style="text-decoration:;">任务采集</tspan></tspan></text></g></g><g id="SvgjsG1021" transform="translate(87,25)"><path id="SvgjsPath1022" d="M 0 4Q 0 0 4 0L 709 0Q 713 0 713 4L 713 68Q 713 72 709 72L 4 72Q 0 72 0 68Z" stroke="rgba(33,41,48,1)" stroke-width="1.5" fill-opacity="1" fill="#f1e4a2"></path><g id="SvgjsG1023"><text id="SvgjsText1024" font-family="微软雅黑" text-anchor="start" font-size="13px" width="693px" fill="#323232" font-weight="400" align="middle" lineHeight="125%" anchor="start" family="微软雅黑" size="13px" weight="400" font-style="" opacity="1" y="25.375" transform="rotate(0)"><tspan id="SvgjsTspan1025" dy="16" x="10"><tspan id="SvgjsTspan1026" style="text-decoration:;">场景扫描</tspan></tspan></text></g></g><g id="SvgjsG1027" transform="translate(25,25)"><path id="SvgjsPath1028" d="M 0 0L 32 0L 32 312L 0 312Z" stroke="rgba(33,41,48,1)" stroke-width="1.5" fill-opacity="1" fill="#a6aef3"></path><g id="SvgjsG1029"><text id="SvgjsText1030" font-family="微软雅黑" text-anchor="middle" font-size="13px" width="12px" fill="#323232" font-weight="400" align="middle" lineHeight="125%" anchor="middle" family="微软雅黑" size="13px" weight="400" font-style="" opacity="1" y="128.875" transform="rotate(0)"><tspan id="SvgjsTspan1031" dy="16" x="16"><tspan id="SvgjsTspan1032" style="text-decoration:;">客</tspan></tspan><tspan id="SvgjsTspan1033" dy="16" x="16"><tspan id="SvgjsTspan1034" style="text-decoration:;">户</tspan></tspan><tspan id="SvgjsTspan1035" dy="16" x="16"><tspan id="SvgjsTspan1036" style="text-decoration:;">端</tspan></tspan></text></g></g><g id="SvgjsG1037" transform="translate(25,359)"><path id="SvgjsPath1038" d="M 0 0L 32 0L 32 72L 0 72Z" stroke="rgba(33,41,48,1)" stroke-width="1.5" fill-opacity="1" fill="#a6aef3"></path><g id="SvgjsG1039"><text id="SvgjsText1040" font-family="微软雅黑" text-anchor="middle" font-size="13px" width="12px" fill="#323232" font-weight="400" align="middle" lineHeight="125%" anchor="middle" family="微软雅黑" size="13px" weight="400" font-style="" opacity="1" y="16.875" transform="rotate(0)"><tspan id="SvgjsTspan1041" dy="16" x="16"><tspan id="SvgjsTspan1042" style="text-decoration:;">通</tspan></tspan><tspan id="SvgjsTspan1043" dy="16" x="16"><tspan id="SvgjsTspan1044" style="text-decoration:;">信</tspan></tspan></text></g></g><g id="SvgjsG1045" transform="translate(25,453)"><path id="SvgjsPath1046" d="M 0 0L 32 0L 32 166L 0 166Z" stroke="rgba(33,41,48,1)" stroke-width="1.5" fill-opacity="1" fill="#a6aef3"></path><g id="SvgjsG1047"><text id="SvgjsText1048" font-family="微软雅黑" text-anchor="middle" font-size="13px" width="12px" fill="#323232" font-weight="400" align="middle" lineHeight="125%" anchor="middle" family="微软雅黑" size="13px" weight="400" font-style="" opacity="1" y="55.875" transform="rotate(0)"><tspan id="SvgjsTspan1049" dy="16" x="16"><tspan id="SvgjsTspan1050" style="text-decoration:;">服</tspan></tspan><tspan id="SvgjsTspan1051" dy="16" x="16"><tspan id="SvgjsTspan1052" style="text-decoration:;">务</tspan></tspan><tspan id="SvgjsTspan1053" dy="16" x="16"><tspan id="SvgjsTspan1054" style="text-decoration:;">端</tspan></tspan></text></g></g><g id="SvgjsG1055" transform="translate(166,37)"><path id="SvgjsPath1056" d="M 0 4Q 0 0 4 0L 129 0Q 133 0 133 4L 133 44Q 133 48 129 48L 4 48Q 0 48 0 44Z" stroke="rgba(33,41,48,1)" stroke-width="1.5" fill-opacity="1" fill="#ffffff"></path><g id="SvgjsG1057"><text id="SvgjsText1058" font-family="微软雅黑" text-anchor="middle" font-size="13px" width="113px" fill="#323232" font-weight="400" align="middle" lineHeight="125%" anchor="middle" family="微软雅黑" size="13px" weight="400" font-style="" opacity="1" y="13.375" transform="rotate(0)"><tspan id="SvgjsTspan1059" dy="16" x="66.5"><tspan id="SvgjsTspan1060" style="text-decoration:;">场景扫描器</tspan></tspan></text></g></g><g id="SvgjsG1061" transform="translate(323,37)"><path id="SvgjsPath1062" d="M 0 4Q 0 0 4 0L 129 0Q 133 0 133 4L 133 44Q 133 48 129 48L 4 48Q 0 48 0 44Z" stroke="rgba(33,41,48,1)" stroke-width="1.5" fill-opacity="1" fill="#ffffff"></path><g id="SvgjsG1063"><text id="SvgjsText1064" font-family="微软雅黑" text-anchor="middle" font-size="13px" width="113px" fill="#323232" font-weight="400" align="middle" lineHeight="125%" anchor="middle" family="微软雅黑" size="13px" weight="400" font-style="" opacity="1" y="13.375" transform="rotate(0)"><tspan id="SvgjsTspan1065" dy="16" x="66.5"><tspan id="SvgjsTspan1066" style="text-decoration:;">场景缓存器</tspan></tspan></text></g></g><g id="SvgjsG1067" transform="translate(480,37)"><path id="SvgjsPath1068" d="M 0 4Q 0 0 4 0L 129 0Q 133 0 133 4L 133 44Q 133 48 129 48L 4 48Q 0 48 0 44Z" stroke="rgba(33,41,48,1)" stroke-width="1.5" fill-opacity="1" fill="#ffffff"></path><g id="SvgjsG1069"><text id="SvgjsText1070" font-family="微软雅黑" text-anchor="middle" font-size="13px" width="113px" fill="#323232" font-weight="400" align="middle" lineHeight="125%" anchor="middle" family="微软雅黑" size="13px" weight="400" font-style="" opacity="1" y="13.375" transform="rotate(0)"><tspan id="SvgjsTspan1071" dy="16" x="66.5"><tspan id="SvgjsTspan1072" style="text-decoration:;">场景注册</tspan></tspan></text></g></g><g id="SvgjsG1073" transform="translate(166,116)"><path id="SvgjsPath1074" d="M 0 4Q 0 0 4 0L 129 0Q 133 0 133 4L 133 44Q 133 48 129 48L 4 48Q 0 48 0 44Z" stroke="rgba(33,41,48,1)" stroke-width="1.5" fill-opacity="1" fill="#ffffff"></path><g id="SvgjsG1075"><text id="SvgjsText1076" font-family="微软雅黑" text-anchor="middle" font-size="13px" width="113px" fill="#323232" font-weight="400" align="middle" lineHeight="125%" anchor="middle" family="微软雅黑" size="13px" weight="400" font-style="" opacity="1" y="13.375" transform="rotate(0)"><tspan id="SvgjsTspan1077" dy="16" x="66.5"><tspan id="SvgjsTspan1078" style="text-decoration:;">业务字段采集器</tspan></tspan></text></g></g><g id="SvgjsG1079" transform="translate(323,116)"><path id="SvgjsPath1080" d="M 0 4Q 0 0 4 0L 129 0Q 133 0 133 4L 133 44Q 133 48 129 48L 4 48Q 0 48 0 44Z" stroke="rgba(33,41,48,1)" stroke-width="1.5" fill-opacity="1" fill="#ffffff"></path><g id="SvgjsG1081"><text id="SvgjsText1082" font-family="微软雅黑" text-anchor="middle" font-size="13px" width="113px" fill="#323232" font-weight="400" align="middle" lineHeight="125%" anchor="middle" family="微软雅黑" size="13px" weight="400" font-style="" opacity="1" y="13.375" transform="rotate(0)"><tspan id="SvgjsTspan1083" dy="16" x="66.5"><tspan id="SvgjsTspan1084" style="text-decoration:;">业务字段采集器</tspan></tspan></text></g></g><g id="SvgjsG1085" transform="translate(480,116)"><path id="SvgjsPath1086" d="M 0 4Q 0 0 4 0L 129 0Q 133 0 133 4L 133 44Q 133 48 129 48L 4 48Q 0 48 0 44Z" stroke="rgba(33,41,48,1)" stroke-width="1.5" fill-opacity="1" fill="#ffffff"></path><g id="SvgjsG1087"><text id="SvgjsText1088" font-family="微软雅黑" text-anchor="middle" font-size="13px" width="113px" fill="#323232" font-weight="400" align="middle" lineHeight="125%" anchor="middle" family="微软雅黑" size="13px" weight="400" font-style="" opacity="1" y="13.375" transform="rotate(0)"><tspan id="SvgjsTspan1089" dy="16" x="66.5"><tspan id="SvgjsTspan1090" style="text-decoration:;">上下文暂存器</tspan></tspan></text></g></g><g id="SvgjsG1091" transform="translate(637,116)"><path id="SvgjsPath1092" d="M 0 4Q 0 0 4 0L 129 0Q 133 0 133 4L 133 44Q 133 48 129 48L 4 48Q 0 48 0 44Z" stroke="rgba(33,41,48,1)" stroke-width="1.5" fill-opacity="1" fill="#ffffff"></path><g id="SvgjsG1093"><text id="SvgjsText1094" font-family="微软雅黑" text-anchor="middle" font-size="13px" width="113px" fill="#323232" font-weight="400" align="middle" lineHeight="125%" anchor="middle" family="微软雅黑" size="13px" weight="400" font-style="" opacity="1" y="13.375" transform="rotate(0)"><tspan id="SvgjsTspan1095" dy="16" x="66.5"><tspan id="SvgjsTspan1096" style="text-decoration:;">参数序列化</tspan></tspan></text></g></g><g id="SvgjsG1097" transform="translate(87,185)"><path id="SvgjsPath1098" d="M 0 4Q 0 0 4 0L 709 0Q 713 0 713 4L 713 68Q 713 72 709 72L 4 72Q 0 72 0 68Z" stroke="rgba(33,41,48,1)" stroke-width="1.5" fill-opacity="1" fill="#f1e4a2"></path><g id="SvgjsG1099"><text id="SvgjsText1100" font-family="微软雅黑" text-anchor="start" font-size="13px" width="693px" fill="#323232" font-weight="400" align="middle" lineHeight="125%" anchor="start" family="微软雅黑" size="13px" weight="400" font-style="" opacity="1" y="25.375" transform="rotate(0)"><tspan id="SvgjsTspan1101" dy="16" x="10"><tspan id="SvgjsTspan1102" style="text-decoration:;">任务执行</tspan></tspan></text></g></g><g id="SvgjsG1103" transform="translate(166,197)"><path id="SvgjsPath1104" d="M 0 4Q 0 0 4 0L 129 0Q 133 0 133 4L 133 44Q 133 48 129 48L 4 48Q 0 48 0 44Z" stroke="rgba(33,41,48,1)" stroke-width="1.5" fill-opacity="1" fill="#ffffff"></path><g id="SvgjsG1105"><text id="SvgjsText1106" font-family="微软雅黑" text-anchor="middle" font-size="13px" width="113px" fill="#323232" font-weight="400" align="middle" lineHeight="125%" anchor="middle" family="微软雅黑" size="13px" weight="400" font-style="" opacity="1" y="13.375" transform="rotate(0)"><tspan id="SvgjsTspan1107" dy="16" x="66.5"><tspan id="SvgjsTspan1108" style="text-decoration:;">校验器</tspan></tspan></text></g></g><g id="SvgjsG1109" transform="translate(323,197)"><path id="SvgjsPath1110" d="M 0 4Q 0 0 4 0L 129 0Q 133 0 133 4L 133 44Q 133 48 129 48L 4 48Q 0 48 0 44Z" stroke="rgba(33,41,48,1)" stroke-width="1.5" fill-opacity="1" fill="#ffffff"></path><g id="SvgjsG1111"><text id="SvgjsText1112" font-family="微软雅黑" text-anchor="middle" font-size="13px" width="113px" fill="#323232" font-weight="400" align="middle" lineHeight="125%" anchor="middle" family="微软雅黑" size="13px" weight="400" font-style="" opacity="1" y="13.375" transform="rotate(0)"><tspan id="SvgjsTspan1113" dy="16" x="66.5"><tspan id="SvgjsTspan1114" style="text-decoration:;">重试流量标记</tspan></tspan></text></g></g><g id="SvgjsG1115" transform="translate(480,197)"><path id="SvgjsPath1116" d="M 0 4Q 0 0 4 0L 129 0Q 133 0 133 4L 133 44Q 133 48 129 48L 4 48Q 0 48 0 44Z" stroke="rgba(33,41,48,1)" stroke-width="1.5" fill-opacity="1" fill="#ffffff"></path><g id="SvgjsG1117"><text id="SvgjsText1118" font-family="微软雅黑" text-anchor="middle" font-size="13px" width="113px" fill="#323232" font-weight="400" align="middle" lineHeight="125%" anchor="middle" family="微软雅黑" size="13px" weight="400" font-style="" opacity="1" y="13.375" transform="rotate(0)"><tspan id="SvgjsTspan1119" dy="16" x="66.5"><tspan id="SvgjsTspan1120" style="text-decoration:;">方法执行器</tspan></tspan></text></g></g><g id="SvgjsG1121" transform="translate(637,197)"><path id="SvgjsPath1122" d="M 0 4Q 0 0 4 0L 129 0Q 133 0 133 4L 133 44Q 133 48 129 48L 4 48Q 0 48 0 44Z" stroke="rgba(33,41,48,1)" stroke-width="1.5" fill-opacity="1" fill="#ffffff"></path><g id="SvgjsG1123"><text id="SvgjsText1124" font-family="微软雅黑" text-anchor="middle" font-size="13px" width="113px" fill="#323232" font-weight="400" align="middle" lineHeight="125%" anchor="middle" family="微软雅黑" size="13px" weight="400" font-style="" opacity="1" y="13.375" transform="rotate(0)"><tspan id="SvgjsTspan1125" dy="16" x="66.5"><tspan id="SvgjsTspan1126" style="text-decoration:;">回调执行器</tspan></tspan></text></g></g><g id="SvgjsG1127" transform="translate(87,265)"><path id="SvgjsPath1128" d="M 0 4Q 0 0 4 0L 709 0Q 713 0 713 4L 713 68Q 713 72 709 72L 4 72Q 0 72 0 68Z" stroke="rgba(33,41,48,1)" stroke-width="1.5" fill-opacity="1" fill="#f1e4a2"></path><g id="SvgjsG1129"><text id="SvgjsText1130" font-family="微软雅黑" text-anchor="start" font-size="13px" width="693px" fill="#323232" font-weight="400" align="middle" lineHeight="125%" anchor="start" family="微软雅黑" size="13px" weight="400" font-style="" opacity="1" y="25.375" transform="rotate(0)"><tspan id="SvgjsTspan1131" dy="16" x="10"><tspan id="SvgjsTspan1132" style="text-decoration:;">任务上报</tspan></tspan></text></g></g><g id="SvgjsG1133" transform="translate(323,371)"><path id="SvgjsPath1134" d="M 0 4Q 0 0 4 0L 129 0Q 133 0 133 4L 133 44Q 133 48 129 48L 4 48Q 0 48 0 44Z" stroke="rgba(33,41,48,1)" stroke-width="1.5" fill-opacity="1" fill="#ffffff"></path><g id="SvgjsG1135"><text id="SvgjsText1136" font-family="微软雅黑" text-anchor="middle" font-size="13px" width="113px" fill="#323232" font-weight="400" align="middle" lineHeight="125%" anchor="middle" family="微软雅黑" size="13px" weight="400" font-style="" opacity="1" y="13.375" transform="rotate(0)"><tspan id="SvgjsTspan1137" dy="16" x="66.5"><tspan id="SvgjsTspan1138" style="text-decoration:;">http(同步)</tspan></tspan></text></g></g><g id="SvgjsG1139" transform="translate(480,371)"><path id="SvgjsPath1140" d="M 0 4Q 0 0 4 0L 129 0Q 133 0 133 4L 133 44Q 133 48 129 48L 4 48Q 0 48 0 44Z" stroke="rgba(33,41,48,1)" stroke-width="1.5" fill-opacity="1" fill="#ffffff"></path><g id="SvgjsG1141"><text id="SvgjsText1142" font-family="微软雅黑" text-anchor="middle" font-size="13px" width="113px" fill="#323232" font-weight="400" align="middle" lineHeight="125%" anchor="middle" family="微软雅黑" size="13px" weight="400" font-style="" opacity="1" y="13.375" transform="rotate(0)"><tspan id="SvgjsTspan1143" dy="16" x="66.5"><tspan id="SvgjsTspan1144" style="text-decoration:;">mq(异步)</tspan></tspan></text></g></g><g id="SvgjsG1145" transform="translate(480,278)"><path id="SvgjsPath1146" d="M 0 4Q 0 0 4 0L 129 0Q 133 0 133 4L 133 44Q 133 48 129 48L 4 48Q 0 48 0 44Z" stroke="rgba(33,41,48,1)" stroke-width="1.5" fill-opacity="1" fill="#ffffff"></path><g id="SvgjsG1147"><text id="SvgjsText1148" font-family="微软雅黑" text-anchor="middle" font-size="13px" width="113px" fill="#323232" font-weight="400" align="middle" lineHeight="125%" anchor="middle" family="微软雅黑" size="13px" weight="400" font-style="" opacity="1" y="13.375" transform="rotate(0)"><tspan id="SvgjsTspan1149" dy="16" x="66.5"><tspan id="SvgjsTspan1150" style="text-decoration:;">异常告警器</tspan></tspan></text></g></g><g id="SvgjsG1151" transform="translate(323,278)"><path id="SvgjsPath1152" d="M 0 4Q 0 0 4 0L 129 0Q 133 0 133 4L 133 44Q 133 48 129 48L 4 48Q 0 48 0 44Z" stroke="rgba(33,41,48,1)" stroke-width="1.5" fill-opacity="1" fill="#ffffff"></path><g id="SvgjsG1153"><text id="SvgjsText1154" font-family="微软雅黑" text-anchor="middle" font-size="13px" width="113px" fill="#323232" font-weight="400" align="middle" lineHeight="125%" anchor="middle" family="微软雅黑" size="13px" weight="400" font-style="" opacity="1" y="13.375" transform="rotate(0)"><tspan id="SvgjsTspan1155" dy="16" x="66.5"><tspan id="SvgjsTspan1156" style="text-decoration:;">上报器</tspan></tspan></text></g></g><g id="SvgjsG1157" transform="translate(87,453)"><path id="SvgjsPath1158" d="M 0 4Q 0 0 4 0L 709 0Q 713 0 713 4L 713 68Q 713 72 709 72L 4 72Q 0 72 0 68Z" stroke="rgba(33,41,48,1)" stroke-width="1.5" fill-opacity="1" fill="#bfbfbf"></path><g id="SvgjsG1159"><text id="SvgjsText1160" font-family="微软雅黑" text-anchor="start" font-size="13px" width="693px" fill="#323232" font-weight="400" align="middle" lineHeight="125%" anchor="start" family="微软雅黑" size="13px" weight="400" font-style="" opacity="1" y="25.375" transform="rotate(0)"><tspan id="SvgjsTspan1161" dy="16" x="10"><tspan id="SvgjsTspan1162" style="text-decoration:;">服务端重试</tspan></tspan></text></g></g><g id="SvgjsG1163" transform="translate(166,466)"><path id="SvgjsPath1164" d="M 0 4Q 0 0 4 0L 129 0Q 133 0 133 4L 133 44Q 133 48 129 48L 4 48Q 0 48 0 44Z" stroke="rgba(33,41,48,1)" stroke-width="1.5" fill-opacity="1" fill="#ffffff"></path><g id="SvgjsG1165"><text id="SvgjsText1166" font-family="微软雅黑" text-anchor="middle" font-size="13px" width="113px" fill="#323232" font-weight="400" align="middle" lineHeight="125%" anchor="middle" family="微软雅黑" size="13px" weight="400" font-style="" opacity="1" y="13.375" transform="rotate(0)"><tspan id="SvgjsTspan1167" dy="16" x="66.5"><tspan id="SvgjsTspan1168" style="text-decoration:;">任务扫描器</tspan></tspan></text></g></g><g id="SvgjsG1169" transform="translate(323,466)"><path id="SvgjsPath1170" d="M 0 4Q 0 0 4 0L 129 0Q 133 0 133 4L 133 44Q 133 48 129 48L 4 48Q 0 48 0 44Z" stroke="rgba(33,41,48,1)" stroke-width="1.5" fill-opacity="1" fill="#ffffff"></path><g id="SvgjsG1171"><text id="SvgjsText1172" font-family="微软雅黑" text-anchor="middle" font-size="13px" width="113px" fill="#323232" font-weight="400" align="middle" lineHeight="125%" anchor="middle" family="微软雅黑" size="13px" weight="400" font-style="" opacity="1" y="13.375" transform="rotate(0)"><tspan id="SvgjsTspan1173" dy="16" x="66.5"><tspan id="SvgjsTspan1174" style="text-decoration:;">任务分发器</tspan></tspan></text></g></g><g id="SvgjsG1175" transform="translate(480,466)"><path id="SvgjsPath1176" d="M 0 4Q 0 0 4 0L 129 0Q 133 0 133 4L 133 44Q 133 48 129 48L 4 48Q 0 48 0 44Z" stroke="rgba(33,41,48,1)" stroke-width="1.5" fill-opacity="1" fill="#ffffff"></path><g id="SvgjsG1177"><text id="SvgjsText1178" font-family="微软雅黑" text-anchor="middle" font-size="13px" width="113px" fill="#323232" font-weight="400" align="middle" lineHeight="125%" anchor="middle" family="微软雅黑" size="13px" weight="400" font-style="" opacity="1" y="13.375" transform="rotate(0)"><tspan id="SvgjsTspan1179" dy="16" x="66.5"><tspan id="SvgjsTspan1180" style="text-decoration:;">任务执行器</tspan></tspan></text></g></g><g id="SvgjsG1181" transform="translate(637,466)"><path id="SvgjsPath1182" d="M 0 4Q 0 0 4 0L 129 0Q 133 0 133 4L 133 44Q 133 48 129 48L 4 48Q 0 48 0 44Z" stroke="rgba(33,41,48,1)" stroke-width="1.5" fill-opacity="1" fill="#ffffff"></path><g id="SvgjsG1183"><text id="SvgjsText1184" font-family="微软雅黑" text-anchor="middle" font-size="13px" width="113px" fill="#323232" font-weight="400" align="middle" lineHeight="125%" anchor="middle" family="微软雅黑" size="13px" weight="400" font-style="" opacity="1" y="13.375" transform="rotate(0)"><tspan id="SvgjsTspan1185" dy="16" x="66.5"><tspan id="SvgjsTspan1186" style="text-decoration:;">结果处理器</tspan></tspan></text></g></g><g id="SvgjsG1187" transform="translate(87,547)"><path id="SvgjsPath1188" d="M 0 4Q 0 0 4 0L 709 0Q 713 0 713 4L 713 68Q 713 72 709 72L 4 72Q 0 72 0 68Z" stroke="rgba(33,41,48,1)" stroke-width="1.5" fill-opacity="1" fill="#f2f2f2"></path><g id="SvgjsG1189"><text id="SvgjsText1190" font-family="微软雅黑" text-anchor="start" font-size="13px" width="693px" fill="#323232" font-weight="400" align="middle" lineHeight="125%" anchor="start" family="微软雅黑" size="13px" weight="400" font-style="" opacity="1" y="25.375" transform="rotate(0)"><tspan id="SvgjsTspan1191" dy="16" x="10"><tspan id="SvgjsTspan1192" style="text-decoration:;">后台管理</tspan></tspan></text></g></g><g id="SvgjsG1193" transform="translate(166,559)"><path id="SvgjsPath1194" d="M 0 4Q 0 0 4 0L 129 0Q 133 0 133 4L 133 44Q 133 48 129 48L 4 48Q 0 48 0 44Z" stroke="rgba(33,41,48,1)" stroke-width="1.5" fill-opacity="1" fill="#ffffff"></path><g id="SvgjsG1195"><text id="SvgjsText1196" font-family="微软雅黑" text-anchor="middle" font-size="13px" width="113px" fill="#323232" font-weight="400" align="middle" lineHeight="125%" anchor="middle" family="微软雅黑" size="13px" weight="400" font-style="" opacity="1" y="13.375" transform="rotate(0)"><tspan id="SvgjsTspan1197" dy="16" x="66.5"><tspan id="SvgjsTspan1198" style="text-decoration:;">组管理</tspan></tspan></text></g></g><g id="SvgjsG1199" transform="translate(323,559)"><path id="SvgjsPath1200" d="M 0 4Q 0 0 4 0L 129 0Q 133 0 133 4L 133 44Q 133 48 129 48L 4 48Q 0 48 0 44Z" stroke="rgba(33,41,48,1)" stroke-width="1.5" fill-opacity="1" fill="#ffffff"></path><g id="SvgjsG1201"><text id="SvgjsText1202" font-family="微软雅黑" text-anchor="middle" font-size="13px" width="113px" fill="#323232" font-weight="400" align="middle" lineHeight="125%" anchor="middle" family="微软雅黑" size="13px" weight="400" font-style="" opacity="1" y="13.375" transform="rotate(0)"><tspan id="SvgjsTspan1203" dy="16" x="66.5"><tspan id="SvgjsTspan1204" style="text-decoration:;">场景管理</tspan></tspan></text></g></g><g id="SvgjsG1205" transform="translate(480,559)"><path id="SvgjsPath1206" d="M 0 4Q 0 0 4 0L 129 0Q 133 0 133 4L 133 44Q 133 48 129 48L 4 48Q 0 48 0 44Z" stroke="rgba(33,41,48,1)" stroke-width="1.5" fill-opacity="1" fill="#ffffff"></path><g id="SvgjsG1207"><text id="SvgjsText1208" font-family="微软雅黑" text-anchor="middle" font-size="13px" width="113px" fill="#323232" font-weight="400" align="middle" lineHeight="125%" anchor="middle" family="微软雅黑" size="13px" weight="400" font-style="" opacity="1" y="13.375" transform="rotate(0)"><tspan id="SvgjsTspan1209" dy="16" x="66.5"><tspan id="SvgjsTspan1210" style="text-decoration:;">任务管理</tspan></tspan></text></g></g><g id="SvgjsG1211" transform="translate(637,559)"><path id="SvgjsPath1212" d="M 0 4Q 0 0 4 0L 129 0Q 133 0 133 4L 133 44Q 133 48 129 48L 4 48Q 0 48 0 44Z" stroke="rgba(33,41,48,1)" stroke-width="1.5" fill-opacity="1" fill="#ffffff"></path><g id="SvgjsG1213"><text id="SvgjsText1214" font-family="微软雅黑" text-anchor="middle" font-size="13px" width="113px" fill="#323232" font-weight="400" align="middle" lineHeight="125%" anchor="middle" family="微软雅黑" size="13px" weight="400" font-style="" opacity="1" y="13.375" transform="rotate(0)"><tspan id="SvgjsTspan1215" dy="16" x="66.5"><tspan id="SvgjsTspan1216" style="text-decoration:;">任务归档</tspan></tspan></text></g></g><g id="normal_brand" transform="translate(287.5,360)"><text id="SvgjsText1218" font-family="Helvetica, Arial, sans-serif" style="transform:rotate(-30deg);opacity: 0.06; color:#000; font-family: Microsoft Yahei;"><tspan id="SvgjsTspan1219" font-size="48" dy="0" x="0"></tspan></text></g></svg>